<svg xmlns="http://www.w3.org/2000/svg" xmlns:xlink="http://www.w3.org/1999/xlink" width="112" height="53" viewBox="0 0 112 53"><defs><style>.a{clip-path:url(#b);}.b{fill:#f3d48f;}</style><clipPath id="b"><rect width="112" height="53"/></clipPath></defs><g id="a" class="a"><path class="b" d="M-5427.5,59h-59a26.332,26.332,0,0,1-10.315-2.082,26.408,26.408,0,0,1-8.423-5.679,26.4,26.4,0,0,1-5.679-8.423A26.334,26.334,0,0,1-5513,32.5a26.334,26.334,0,0,1,2.083-10.315,26.4,26.4,0,0,1,5.679-8.423,26.407,26.407,0,0,1,8.423-5.679A26.332,26.332,0,0,1-5486.5,6h59a26.335,26.335,0,0,1,10.315,2.082,26.409,26.409,0,0,1,8.423,5.679,26.4,26.4,0,0,1,5.679,8.423A26.334,26.334,0,0,1-5401,32.5a26.334,26.334,0,0,1-2.083,10.315,26.4,26.4,0,0,1-5.679,8.423,26.409,26.409,0,0,1-8.423,5.679A26.335,26.335,0,0,1-5427.5,59Zm-18.272-20.95-.267,1.6a4.9,4.9,0,0,0,.882.1,2.433,2.433,0,0,0,2.563-1.637l3.178-7.868h-1.919l-1.764,4.7-1.763-4.7h-1.905l2.745,6.86-.252.574a.889.889,0,0,1-.938.49,1.535,1.535,0,0,1-.561-.112Zm-12.811-7.98a3.444,3.444,0,0,0-3.5,3.542,3.429,3.429,0,0,0,3.611,3.557,4.209,4.209,0,0,0,2.787-.938l-.785-1.148a2.748,2.748,0,0,1-1.806.672,1.817,1.817,0,0,1-1.947-1.569h5.027v-.392a3.914,3.914,0,0,0-.938-2.692A3.21,3.21,0,0,0-5458.583,30.069Zm7.995,1.583a1.1,1.1,0,0,1,1.247,1.26V37h1.778V32.226a1.965,1.965,0,0,0-2.2-2.157,3.091,3.091,0,0,0-2.366,1.05v-.881h-1.778V37h1.778V32.45A1.928,1.928,0,0,1-5450.588,31.652Zm-14.87-1.368h0V37h2V27.662h-2.8l-2.268,5.824-2.268-5.824h-2.787V37h1.988V30.28l2.631,6.72h.869Zm8.542,2.7h-3.332a1.625,1.625,0,0,1,1.666-1.5,1.574,1.574,0,0,1,1.666,1.5Z" transform="translate(5513 -6)"/></g></svg>